HIERARCHY
ROOT mixamorig:Hips
{
	OFFSET -0.000008 104.274872 1.554316
	CHANNELS 6 Xposition Yposition Zposition Xrotation Yrotation Zrotation
	JOINT mixamorig:Spine
	{
		OFFSET -0.000005 10.181595 0.131519
		CHANNELS 6 Xposition Yposition Zposition Xrotation Yrotation Zrotation
		JOINT mixamorig:Spine1
		{
			OFFSET -0.000000 9.893959 -1.470707
			CHANNELS 6 Xposition Yposition Zposition Xrotation Yrotation Zrotation
			JOINT mixamorig:Spine2
			{
				OFFSET -0.000000 9.220757 -1.370641
				CHANNELS 6 Xposition Yposition Zposition Xrotation Yrotation Zrotation
				JOINT mixamorig:Neck
				{
					OFFSET 0.000001 16.740417 -2.049036
					CHANNELS 6 Xposition Yposition Zposition Xrotation Yrotation Zrotation
					JOINT mixamorig:Head
					{
						OFFSET 0.000000 9.617874 1.685006
						CHANNELS 6 Xposition Yposition Zposition Xrotation Yrotation Zrotation
						JOINT mixamorig:HeadTop_End
						{
							OFFSET 0.000002 22.037354 7.501101
							CHANNELS 6 Xposition Yposition Zposition Xrotation Yrotation Zrotation
							End Site
							{
								OFFSET 0.000168 2310.654297 -282.823242
							}
						}
					}
				}
				JOINT mixamorig:RightShoulder
				{
					OFFSET -4.569970 11.014908 -2.160885
					CHANNELS 6 Xposition Yposition Zposition Xrotation Yrotation Zrotation
					JOINT mixamorig:RightArm
					{
						OFFSET -10.592851 -0.524811 -2.232101
						CHANNELS 6 Xposition Yposition Zposition Xrotation Yrotation Zrotation
						JOINT mixamorig:RightForeArm
						{
							OFFSET -27.841511 0.000031 -0.000004
							CHANNELS 6 Xposition Yposition Zposition Xrotation Yrotation Zrotation
							JOINT mixamorig:RightHand
							{
								OFFSET -28.328831 -0.000015 0.000015
								CHANNELS 6 Xposition Yposition Zposition Xrotation Yrotation Zrotation
								JOINT mixamorig:RightHandThumb1
								{
									OFFSET -2.464806 -1.573990 2.681852
									CHANNELS 6 Xposition Yposition Zposition Xrotation Yrotation Zrotation
									JOINT mixamorig:RightHandThumb2
									{
										OFFSET -3.215179 -1.872803 1.924282
										CHANNELS 6 Xposition Yposition Zposition Xrotation Yrotation Zrotation
										JOINT mixamorig:RightHandThumb3
										{
											OFFSET -2.654831 -1.527969 1.512609
											CHANNELS 6 Xposition Yposition Zposition Xrotation Yrotation Zrotation
											JOINT mixamorig:RightHandThumb4
											{
												OFFSET -2.018814 -1.152008 1.108052
												CHANNELS 6 Xposition Yposition Zposition Xrotation Yrotation Zrotation
												End Site
												{
													OFFSET -188.809540 -114.533607 132.431396
												}
											}
										}
									}
								}
								JOINT mixamorig:RightHandIndex1
								{
									OFFSET -9.108284 -0.517868 2.259835
									CHANNELS 6 Xposition Yposition Zposition Xrotation Yrotation Zrotation
									JOINT mixamorig:RightHandIndex2
									{
										OFFSET -3.699989 0.000000 0.001215
										CHANNELS 6 Xposition Yposition Zposition Xrotation Yrotation Zrotation
										JOINT mixamorig:RightHandIndex3
										{
											OFFSET -2.850006 0.000031 -0.000522
											CHANNELS 6 Xposition Yposition Zposition Xrotation Yrotation Zrotation
											JOINT mixamorig:RightHandIndex4
											{
												OFFSET -2.772186 -0.000015 -0.000020
												CHANNELS 6 Xposition Yposition Zposition Xrotation Yrotation Zrotation
												End Site
												{
													OFFSET -277.218445 0.000000 -0.050231
												}
											}
										}
									}
								}
								JOINT mixamorig:RightHandMiddle1
								{
									OFFSET -9.532516 -0.000031 -0.000023
									CHANNELS 6 Xposition Yposition Zposition Xrotation Yrotation Zrotation
									JOINT mixamorig:RightHandMiddle2
									{
										OFFSET -3.700005 -0.000015 0.003713
										CHANNELS 6 Xposition Yposition Zposition Xrotation Yrotation Zrotation
										JOINT mixamorig:RightHandMiddle3
										{
											OFFSET -2.949974 0.000015 -0.002054
											CHANNELS 6 Xposition Yposition Zposition Xrotation Yrotation Zrotation
											JOINT mixamorig:RightHandMiddle4
											{
												OFFSET -2.946640 0.000000 -0.000156
												CHANNELS 6 Xposition Yposition Zposition Xrotation Yrotation Zrotation
												End Site
												{
													OFFSET -294.664337 0.000000 -0.113670
												}
											}
										}
									}
								}
								JOINT mixamorig:RightHandRing1
								{
									OFFSET -9.103600 -0.043076 -1.865134
									CHANNELS 6 Xposition Yposition Zposition Xrotation Yrotation Zrotation
									JOINT mixamorig:RightHandRing2
									{
										OFFSET -3.379288 0.000000 -0.001055
										CHANNELS 6 Xposition Yposition Zposition Xrotation Yrotation Zrotation
										JOINT mixamorig:RightHandRing3
										{
											OFFSET -2.889687 -0.000015 0.000379
											CHANNELS 6 Xposition Yposition Zposition Xrotation Yrotation Zrotation
											JOINT mixamorig:RightHandRing4
											{
												OFFSET -2.638809 -0.000015 0.000941
												CHANNELS 6 Xposition Yposition Zposition Xrotation Yrotation Zrotation
												End Site
												{
													OFFSET -263.880371 0.000000 0.516020
												}
											}
										}
									}
								}
								JOINT mixamorig:RightHandPinky1
								{
									OFFSET -8.076683 -0.486710 -3.806280
									CHANNELS 6 Xposition Yposition Zposition Xrotation Yrotation Zrotation
									JOINT mixamorig:RightHandPinky2
									{
										OFFSET -3.600014 -0.000015 -0.003747
										CHANNELS 6 Xposition Yposition Zposition Xrotation Yrotation Zrotation
										JOINT mixamorig:RightHandPinky3
										{
											OFFSET -2.099983 0.000000 -0.005739
											CHANNELS 6 Xposition Yposition Zposition Xrotation Yrotation Zrotation
											JOINT mixamorig:RightHandPinky4
											{
												OFFSET -2.115768 -0.000031 -0.003680
												CHANNELS 6 Xposition Yposition Zposition Xrotation Yrotation Zrotation
												End Site
												{
													OFFSET -211.577087 0.000000 -0.350686
												}
											}
										}
									}
								}
							}
						}
					}
				}
				JOINT mixamorig:LeftShoulder
				{
					OFFSET 4.570447 11.014725 -2.160855
					CHANNELS 6 Xposition Yposition Zposition Xrotation Yrotation Zrotation
					JOINT mixamorig:LeftArm
					{
						OFFSET 10.592371 -0.524597 -2.232119
						CHANNELS 6 Xposition Yposition Zposition Xrotation Yrotation Zrotation
						JOINT mixamorig:LeftForeArm
						{
							OFFSET 27.841532 -0.000031 0.000026
							CHANNELS 6 Xposition Yposition Zposition Xrotation Yrotation Zrotation
							JOINT mixamorig:LeftHand
							{
								OFFSET 28.328846 -0.000061 0.000022
								CHANNELS 6 Xposition Yposition Zposition Xrotation Yrotation Zrotation
								JOINT mixamorig:LeftHandThumb1
								{
									OFFSET 2.466141 -1.576172 2.681732
									CHANNELS 6 Xposition Yposition Zposition Xrotation Yrotation Zrotation
									JOINT mixamorig:LeftHandThumb2
									{
										OFFSET 3.217812 -1.872070 1.916482
										CHANNELS 6 Xposition Yposition Zposition Xrotation Yrotation Zrotation
										JOINT mixamorig:LeftHandThumb3
										{
											OFFSET 2.656029 -1.528778 1.514513
											CHANNELS 6 Xposition Yposition Zposition Xrotation Yrotation Zrotation
											JOINT mixamorig:LeftHandThumb4
											{
												OFFSET 2.020889 -1.154053 1.115139
												CHANNELS 6 Xposition Yposition Zposition Xrotation Yrotation Zrotation
												End Site
												{
													OFFSET 190.885437 -115.081749 130.048782
												}
											}
										}
									}
								}
								JOINT mixamorig:LeftHandIndex1
								{
									OFFSET 9.109314 -0.518021 2.259871
									CHANNELS 6 Xposition Yposition Zposition Xrotation Yrotation Zrotation
									JOINT mixamorig:LeftHandIndex2
									{
										OFFSET 3.699989 0.000000 -0.000322
										CHANNELS 6 Xposition Yposition Zposition Xrotation Yrotation Zrotation
										JOINT mixamorig:LeftHandIndex3
										{
											OFFSET 2.850006 0.000000 0.000352
											CHANNELS 6 Xposition Yposition Zposition Xrotation Yrotation Zrotation
											JOINT mixamorig:LeftHandIndex4
											{
												OFFSET 2.774864 -0.000031 -0.000027
												CHANNELS 6 Xposition Yposition Zposition Xrotation Yrotation Zrotation
												End Site
												{
													OFFSET 277.486267 0.000000 -0.009857
												}
											}
										}
									}
								}
								JOINT mixamorig:LeftHandMiddle1
								{
									OFFSET 9.533394 0.000061 0.000044
									CHANNELS 6 Xposition Yposition Zposition Xrotation Yrotation Zrotation
									JOINT mixamorig:LeftHandMiddle2
									{
										OFFSET 3.699989 -0.000015 -0.000231
										CHANNELS 6 Xposition Yposition Zposition Xrotation Yrotation Zrotation
										JOINT mixamorig:LeftHandMiddle3
										{
											OFFSET 2.949997 -0.000015 -0.000059
											CHANNELS 6 Xposition Yposition Zposition Xrotation Yrotation Zrotation
											JOINT mixamorig:LeftHandMiddle4
											{
												OFFSET 2.952896 0.000031 0.000063
												CHANNELS 6 Xposition Yposition Zposition Xrotation Yrotation Zrotation
												End Site
												{
													OFFSET 295.289337 0.000000 0.022810
												}
											}
										}
									}
								}
								JOINT mixamorig:LeftHandRing1
								{
									OFFSET 9.104523 -0.042999 -1.865074
									CHANNELS 6 Xposition Yposition Zposition Xrotation Yrotation Zrotation
									JOINT mixamorig:LeftHandRing2
									{
										OFFSET 3.150009 -0.000031 0.000043
										CHANNELS 6 Xposition Yposition Zposition Xrotation Yrotation Zrotation
										JOINT mixamorig:LeftHandRing3
										{
											OFFSET 2.949982 -0.000015 0.000040
											CHANNELS 6 Xposition Yposition Zposition Xrotation Yrotation Zrotation
											JOINT mixamorig:LeftHandRing4
											{
												OFFSET 2.644348 0.000000 0.000057
												CHANNELS 6 Xposition Yposition Zposition Xrotation Yrotation Zrotation
												End Site
												{
													OFFSET 264.434631 0.000000 0.012105
												}
											}
										}
									}
								}
								JOINT mixamorig:LeftHandPinky1
								{
									OFFSET 8.077789 -0.486847 -3.806259
									CHANNELS 6 Xposition Yposition Zposition Xrotation Yrotation Zrotation
									JOINT mixamorig:LeftHandPinky2
									{
										OFFSET 3.599953 0.000031 0.014727
										CHANNELS 6 Xposition Yposition Zposition Xrotation Yrotation Zrotation
										JOINT mixamorig:LeftHandPinky3
										{
											OFFSET 2.100021 0.000015 0.007705
											CHANNELS 6 Xposition Yposition Zposition Xrotation Yrotation Zrotation
											JOINT mixamorig:LeftHandPinky4
											{
												OFFSET 2.125504 0.000031 0.007517
												CHANNELS 6 Xposition Yposition Zposition Xrotation Yrotation Zrotation
												End Site
												{
													OFFSET 212.550781 0.000000 0.625752
												}
											}
										}
									}
								}
							}
						}
					}
				}
			}
		}
	}
	JOINT mixamorig:RightUpLeg
	{
		OFFSET -8.207787 -6.751648 -1.599560
		CHANNELS 6 Xposition Yposition Zposition Xrotation Yrotation Zrotation
		JOINT mixamorig:RightLeg
		{
			OFFSET -0.000002 -44.370117 0.345942
			CHANNELS 6 Xposition Yposition Zposition Xrotation Yrotation Zrotation
			JOINT mixamorig:RightFoot
			{
				OFFSET 0.000003 -44.423679 -3.043532
				CHANNELS 6 Xposition Yposition Zposition Xrotation Yrotation Zrotation
				JOINT mixamorig:RightToeBase
				{
					OFFSET -0.000002 -8.728671 10.710558
					CHANNELS 6 Xposition Yposition Zposition Xrotation Yrotation Zrotation
					JOINT mixamorig:RightToe_End
					{
						OFFSET -0.000001 -0.000679 9.278119
						CHANNELS 6 Xposition Yposition Zposition Xrotation Yrotation Zrotation
						End Site
						{
							OFFSET 0.000000 -0.067690 927.812134
						}
					}
				}
			}
		}
	}
	JOINT mixamorig:LeftUpLeg
	{
		OFFSET 8.207793 -6.751686 -1.599556
		CHANNELS 6 Xposition Yposition Zposition Xrotation Yrotation Zrotation
		JOINT mixamorig:LeftLeg
		{
			OFFSET -0.000004 -44.370014 0.346954
			CHANNELS 6 Xposition Yposition Zposition Xrotation Yrotation Zrotation
			JOINT mixamorig:LeftFoot
			{
				OFFSET -0.000001 -44.423672 -3.044401
				CHANNELS 6 Xposition Yposition Zposition Xrotation Yrotation Zrotation
				JOINT mixamorig:LeftToeBase
				{
					OFFSET -0.000002 -8.728669 10.710558
					CHANNELS 6 Xposition Yposition Zposition Xrotation Yrotation Zrotation
					JOINT mixamorig:LeftToe_End
					{
						OFFSET -0.000003 -0.000679 9.278133
						CHANNELS 6 Xposition Yposition Zposition Xrotation Yrotation Zrotation
						End Site
						{
							OFFSET 0.000000 -0.068021 927.813477
						}
					}
				}
			}
		}
	}
}
MOTION
Frames: 3
Frame Time: 0.033333
0.000006 104.270477 1.554256 0.000010 0.000003 -0.000113 -0.000005 10.181587 0.131522 0.000001 -0.000003 0.000084 -0.000000 9.893967 -1.470711 0.000001 0.000000 -0.000000 -0.000000 9.220802 -1.370642 0.000000 -0.000000 -0.000000 0.000001 16.740433 -2.049030 0.000000 -0.000000 -0.000000 0.000000 9.617859 1.685014 0.000000 0.000000 0.000000 0.000002 22.037384 7.501101 0.000000 -0.000000 0.000000 -4.569968 11.014880 -2.160881 0.000008 0.000001 -0.000038 -10.592769 -0.524858 -2.231741 84.978680 64.985650 -60.517587 -27.841499 -0.000006 0.000578 43.693851 103.913419 -54.257418 -28.328827 0.000022 0.000028 -0.000319 -0.000044 0.000006 -2.464617 -1.574219 2.682144 85.139599 -143.764636 141.202222 -3.214900 -1.873016 1.924689 219.272650 -39.169895 -74.950958 -2.654458 -1.528005 1.513151 156.301680 -25.983991 -148.684066 -2.018842 -1.151988 1.108071 -0.000005 -0.000003 0.000002 -9.108151 -0.517895 2.260424 174.497482 15.726125 -141.953789 -3.700101 0.000166 0.001322 38.801420 21.545391 -7.655902 -2.850053 0.000057 -0.000511 3.121841 4.703733 -0.128191 -2.772165 -0.000017 -0.000015 -0.000000 0.000000 0.000001 -9.532422 -0.000086 0.000541 172.799961 10.356173 -111.903873 -3.699900 0.000099 0.003661 16.699082 -19.596395 2.901145 -2.949960 -0.000014 -0.002073 -3.082018 -8.707661 -0.235331 -2.946630 0.000015 -0.000151 -0.000000 0.000000 0.000002 -9.103563 -0.043114 -1.864578 176.011858 3.570710 -82.594780 -3.379037 0.000030 -0.001104 6.209304 -42.217310 2.404173 -2.889592 0.000002 0.000329 -1.895518 -20.706019 -0.338192 -2.638804 -0.000015 0.000945 -0.000000 -0.000000 0.000001 -8.076469 -0.486762 -3.805726 182.652810 -4.324693 -120.655223 -3.599755 -0.000050 -0.003774 -2.611089 -43.321189 -1.167463 -2.099881 0.000011 -0.005793 0.948082 -18.577363 0.124092 -2.115767 -0.000055 -0.003676 -0.000001 -0.000002 -0.000004 4.570446 11.014691 -2.160851 -0.000018 0.000010 -0.000021 10.592518 -0.524565 -2.232377 59.689672 -67.712426 42.103998 27.841755 -0.000053 -0.000103 44.605305 -107.496311 58.443873 28.328831 -0.000028 0.000033 0.000025 -0.000089 0.000000 2.466152 -1.576172 2.681870 96.712166 135.169007 -145.603637 3.217792 -1.872042 1.916515 229.354583 50.704316 73.514125 2.655870 -1.528831 1.514616 -11.301257 -222.595168 317.993308 2.020902 -1.154065 1.115149 0.000002 -0.000002 0.000001 9.109470 -0.517883 2.259890 161.556828 -14.787013 77.200583 3.700038 0.000056 -0.000411 55.600100 -23.996478 -347.202394 2.850000 0.000003 0.000340 7.891578 -11.358177 0.785819 2.774882 -0.000047 -0.000026 0.000003 -0.000001 -0.000001 9.533557 0.000253 0.000049 158.855761 -11.440929 56.400629 3.700027 0.000063 -0.000328 403.096892 -3.192087 1.259830 2.950023 -0.000023 -0.000067 -0.162508 0.814786 0.001143 2.952858 -0.000022 0.000060 0.000001 0.000001 0.000003 9.104661 -0.042781 -1.865104 152.263986 -11.437243 44.165072 3.149960 0.000065 -0.000077 388.634677 19.294692 -4.968226 2.949977 -0.000018 0.000024 -10.390901 14.984892 1.369949 2.644320 0.000013 0.000061 0.000002 0.000001 0.000002 8.077908 -0.486576 -3.806283 -26.839640 -171.274534 -142.131920 3.599911 0.000054 0.014599 384.273054 21.941660 -4.772161 2.099994 0.000010 0.007695 -8.054057 23.346638 1.555211 2.125501 -0.000014 0.007511 0.000003 0.000001 0.000001 -8.207786 -6.751667 -1.599560 -0.077001 -0.000003 0.000080 -0.000002 -44.370110 0.345938 0.153719 -0.000000 -0.000000 0.000000 -44.423679 -3.043532 -0.076700 0.000000 -0.000002 -0.000006 -8.728667 10.710559 -0.000009 -0.000000 -0.000000 -0.000001 -0.000679 9.278123 0.000000 -0.000000 -0.000000 8.207792 -6.751710 -1.599556 -0.074518 -0.000003 0.000081 -0.000002 -44.370014 0.346960 0.148822 0.000002 0.000000 -0.000001 -44.423664 -3.044403 -0.074314 0.000000 -0.000002 -0.000004 -8.728671 10.710558 0.000007 -0.000000 -0.000000 0.000000 -0.000680 9.278137 -0.000000 0.000000 -0.000001 
0.000006 104.270477 1.554256 0.000010 0.000003 -0.000113 -0.000005 10.181587 0.131522 0.000001 -0.000003 0.000084 -0.000000 9.893967 -1.470711 0.000001 0.000000 -0.000000 -0.000000 9.220802 -1.370642 0.000000 -0.000000 -0.000000 0.000001 16.740433 -2.049030 0.000000 -0.000000 -0.000000 0.000000 9.617859 1.685014 0.000000 0.000000 0.000000 0.000002 22.037384 7.501101 0.000000 -0.000000 0.000000 -4.569968 11.014880 -2.160881 0.000008 0.000001 -0.000038 -10.592768 -0.524853 -2.231739 85.892620 64.762303 -61.102640 -27.841494 0.000010 0.000578 46.739107 104.582374 -58.402038 -28.328829 0.000037 0.000021 -0.000320 -0.000044 0.000007 -2.464619 -1.574223 2.682125 86.459150 -145.391436 142.551895 -3.214881 -1.873002 1.924695 214.197478 -40.302836 -80.380603 -2.654440 -1.527901 1.513126 144.495780 -20.696038 -170.770179 -2.018831 -1.151985 1.108063 -0.000001 0.000001 0.000004 -9.108138 -0.517911 2.260409 174.370508 15.245687 -139.993866 -3.700083 0.000121 0.001266 23.514584 16.951706 -3.545872 -2.850016 0.000036 -0.000515 1.127964 1.059317 -0.010414 -2.772160 -0.000001 -0.000021 0.000002 -0.000001 0.000002 -9.532345 -0.000114 0.000547 176.093232 10.925437 -142.179485 -3.699896 0.000045 0.003676 5.198941 -20.185726 0.915299 -2.949946 0.000016 -0.002080 1.484071 -11.611960 0.150368 -2.946619 0.000001 -0.000148 -0.000001 0.000000 -0.000002 -9.103304 -0.043054 -1.864567 180.011179 3.500113 -179.187718 -3.379052 -0.000007 -0.001086 -2.299210 -41.297509 -0.860621 -2.889580 0.000031 0.000330 3.415496 -23.025836 0.703054 -2.638801 -0.000027 0.000942 0.000001 0.000002 -0.000000 -8.076586 -0.486773 -3.805733 186.188744 -5.312790 -83.657100 -3.599764 -0.000101 -0.003767 -11.836452 -42.669988 -4.787937 -2.099879 0.000032 -0.005815 6.213909 -20.831519 1.117124 -2.115766 -0.000054 -0.003672 0.000000 -0.000001 -0.000004 4.570446 11.014691 -2.160851 -0.000018 0.000010 -0.000021 10.592516 -0.524540 -2.232383 62.290622 -66.230890 43.027036 27.841749 -0.000086 -0.000097 43.861778 -106.878541 56.996091 28.328840 -0.000028 0.000019 0.000019 -0.000089 -0.000000 2.466152 -1.576153 2.681886 96.721243 135.758670 -145.767152 3.217791 -1.872032 1.916532 228.182919 49.815462 74.000462 2.655888 -1.528829 1.514615 -11.508993 -220.953232 317.285537 2.020879 -1.154058 1.115153 0.000003 0.000001 0.000004 9.109470 -0.517826 2.259873 156.098127 -14.229464 60.999900 3.700037 0.000038 -0.000402 43.735590 -27.394919 -348.817187 2.850009 0.000014 0.000401 -8.359711 -12.706863 -0.932493 2.774885 -0.000051 -0.000027 -0.000001 -0.000000 0.000004 9.533523 0.000297 0.000023 153.630461 -11.042511 44.806806 3.700012 0.000021 -0.000335 394.959350 -3.644686 1.147308 2.950022 -0.000008 -0.000010 -13.563566 1.516382 0.180018 2.952873 -0.000041 0.000078 -0.000002 0.000000 -0.000003 9.104632 -0.042734 -1.865107 151.133932 -10.017530 37.618022 3.149970 0.000046 -0.000082 380.631880 22.950846 -4.232367 2.949969 -0.000018 0.000059 -24.789989 16.698061 3.694143 2.644319 0.000037 0.000042 -0.000001 0.000000 -0.000000 8.077889 -0.486562 -3.806281 -26.456222 -172.099061 -144.827277 3.599921 0.000021 0.014633 373.852726 22.921343 -2.858990 2.099989 -0.000022 0.007730 -20.385842 22.175428 3.884220 2.125497 -0.000015 0.007512 -0.000001 -0.000000 -0.000000 -8.207786 -6.751667 -1.599560 -0.077001 -0.000003 0.000080 -0.000002 -44.370110 0.345938 0.153719 -0.000000 -0.000000 0.000000 -44.423679 -3.043532 -0.076700 0.000000 -0.000002 -0.000006 -8.728667 10.710559 -0.000009 -0.000000 -0.000000 -0.000001 -0.000679 9.278123 0.000000 -0.000000 -0.000000 8.207792 -6.751710 -1.599556 -0.074518 -0.000003 0.000081 -0.000002 -44.370014 0.346960 0.148822 0.000002 0.000000 -0.000001 -44.423664 -3.044403 -0.074314 0.000000 -0.000002 -0.000004 -8.728671 10.710558 0.000007 -0.000000 -0.000000 0.000000 -0.000680 9.278137 -0.000000 0.000000 -0.000001 
0.000006 104.270477 1.554256 0.000010 0.000003 -0.000113 -0.000005 10.181587 0.131522 0.000001 -0.000003 0.000084 -0.000000 9.893967 -1.470711 0.000001 0.000000 -0.000000 -0.000000 9.220802 -1.370642 0.000000 -0.000000 -0.000000 0.000001 16.740433 -2.049030 0.000000 -0.000000 -0.000000 0.000000 9.617859 1.685014 0.000000 0.000000 0.000000 0.000002 22.037384 7.501101 0.000000 -0.000000 0.000000 -4.569968 11.014880 -2.160881 0.000008 0.000001 -0.000038 -10.592775 -0.524858 -2.231745 86.282385 64.314038 -61.010057 -27.841503 -0.000003 0.000584 47.424742 104.034600 -58.718515 -28.328835 0.000007 0.000027 -0.000320 -0.000044 0.000006 -2.464621 -1.574233 2.682121 87.444105 -145.573147 143.187785 -3.214882 -1.872999 1.924709 214.183271 -39.929744 -80.126308 -2.654435 -1.527899 1.513136 146.211865 -21.890519 -167.370480 -2.018831 -1.151999 1.108069 -0.000004 -0.000003 0.000004 -9.108137 -0.517904 2.260422 175.045208 14.283230 -142.258470 -3.700057 0.000153 0.001262 29.186010 12.863228 -3.354653 -2.850020 0.000052 -0.000518 2.731729 -0.886867 0.021159 -2.772146 0.000009 -0.000027 0.000001 -0.000004 -0.000001 -9.532342 -0.000101 0.000553 175.683899 9.753952 -133.958260 -3.699858 0.000048 0.003646 7.975018 -26.089837 1.837285 -2.949932 0.000006 -0.002064 -1.356751 -12.840542 -0.153430 -2.946627 0.000009 -0.000163 -0.000001 -0.000001 -0.000002 -9.103300 -0.043047 -1.864570 180.061764 2.496118 -181.211681 -3.379025 0.000003 -0.001097 0.243025 -44.904413 0.106614 -2.889580 0.000027 0.000334 1.121383 -22.836784 0.234361 -2.638806 0.000001 0.000941 -0.000000 -0.000002 0.000002 -8.076559 -0.486764 -3.805729 186.405206 -5.600753 -84.603409 -3.599760 -0.000105 -0.003757 -12.458727 -45.186021 -5.360909 -2.099872 0.000026 -0.005803 3.078947 -20.323289 0.521478 -2.115768 -0.000040 -0.003680 -0.000001 -0.000001 -0.000003 4.570446 11.014691 -2.160851 -0.000018 0.000010 -0.000021 10.592518 -0.524544 -2.232388 62.857589 -65.937956 43.244680 27.841755 -0.000054 -0.000103 44.878871 -105.688947 57.176729 28.328840 -0.000044 0.000019 0.000018 -0.000090 -0.000000 2.466143 -1.576160 2.681880 95.030956 130.949466 -143.337298 3.217799 -1.872042 1.916533 220.339048 51.051761 81.906201 2.655907 -1.528840 1.514623 -7.342839 -221.359109 311.472691 2.020880 -1.154053 1.115147 0.000002 0.000007 0.000004 9.109472 -0.517834 2.259864 157.923987 -13.065487 60.768979 3.700028 0.000015 -0.000403 41.564611 -28.024661 -349.170417 2.850011 0.000018 0.000400 -6.847916 -13.963387 -0.839654 2.774865 -0.000018 -0.000029 -0.000002 -0.000001 -0.000000 9.533532 0.000295 0.000029 156.022735 -9.552725 42.917111 3.700003 0.000024 -0.000336 393.818599 -4.179989 1.270457 2.950004 -0.000015 -0.000023 -10.258592 -0.943264 -0.084874 2.952880 -0.000018 0.000066 0.000004 -0.000000 0.000001 9.104650 -0.042727 -1.865099 154.121306 -8.587577 36.202120 3.149957 0.000043 -0.000076 380.459732 23.106938 -4.225618 2.949975 -0.000012 0.000051 -20.863612 13.646056 2.523425 2.644320 0.000049 0.000034 -0.000000 -0.000001 -0.000001 8.077906 -0.486567 -3.806269 -22.105649 -173.730615 -145.763914 3.599924 0.000026 0.014629 377.300961 25.454616 -3.972222 2.099994 -0.000013 0.007700 -15.556712 21.309157 2.813235 2.125503 -0.000025 0.007529 0.000002 0.000002 0.000000 -8.207786 -6.751667 -1.599560 -0.077001 -0.000003 0.000080 -0.000002 -44.370110 0.345938 0.153719 -0.000000 -0.000000 0.000000 -44.423679 -3.043532 -0.076700 0.000000 -0.000002 -0.000006 -8.728667 10.710559 -0.000009 -0.000000 -0.000000 -0.000001 -0.000679 9.278123 0.000000 -0.000000 -0.000000 8.207792 -6.751710 -1.599556 -0.074518 -0.000003 0.000081 -0.000002 -44.370014 0.346960 0.148822 0.000002 0.000000 -0.000001 -44.423664 -3.044403 -0.074314 0.000000 -0.000002 -0.000004 -8.728671 10.710558 0.000007 -0.000000 -0.000000 0.000000 -0.000680 9.278137 -0.000000 0.000000 -0.000001 
